{"glyphs":{":":{"x_min":0,"x_max":291,"ha":291,"o":"m 76 149 l 215 149 l 215 0 l 76 0 z m 76 518 l 215 518 l 215 369 l 76 369 z"},"$":{"x_min":0,"x_max":525,"ha":525,"o":"m 279 285 l 279 101 q 315 105 335 129 q 355 152 355 192 q 355 227 336 250 q 317 273 279 285 z m 239 591 q 205 586 187 567 q 169 547 169 515 q 169 486 185 468 q 201 449 239 436 z m 239 778 l 287 778 l 287 694 q 322 692 361 685 q 399 677 440 663 l 431 550 q 396 569 360 579 q 324 589 287 591 l 287 422 q 388 393 437 338 q 486 283 486 200 q 486 113 431 59 q 375 5 279 -1 l 279 -93 l 232 -93 l 232 -3 q 193 -3 149 5 q 105 14 56 30 l 66 145 q 99 124 141 112 q 184 100 232 98 l 232 300 q 134 328 86 377 q 38 426 38 499 q 38 583 93 636 q 148 688 239 692 z"},"?":{"x_min":0,"x_max":450,"ha":450,"o":"m 136 142 l 271 142 l 271 0 l 136 0 z m 272 214 l 143 214 q 143 218 142 222 q 142 227 142 235 q 142 258 147 281 q 152 304 161 321 q 171 339 195 374 q 246 444 246 489 q 246 531 219 557 q 191 583 145 583 q 119 583 90 574 q 61 565 33 549 l 27 673 q 67 689 107 697 q 148 705 190 705 q 287 705 345 654 q 403 604 403 519 q 403 453 331 348 q 323 337 319 331 l 316 327 q 275 265 272 214 z"},"<":{"x_min":0,"x_max":833,"ha":833,"o":"m 704 583 l 704 476 l 268 298 l 704 120 l 704 13 l 129 250 l 129 347 z"},"'":{"x_min":0,"x_max":172,"ha":172,"o":"m 39 702 l 133 702 l 133 429 l 39 429 z"},"=":{"x_min":0,"x_max":833,"ha":833,"o":"m 124 242 l 709 242 l 709 145 l 124 145 z m 124 452 l 709 452 l 709 355 l 124 355 z"},"a":{"x_min":0,"x_max":523,"ha":523,"o":"m 318 243 q 309 244 299 245 q 289 245 273 245 q 219 245 191 224 q 163 203 163 163 q 163 131 181 113 q 199 94 231 94 q 275 94 297 123 q 318 152 318 214 z m 466 297 l 466 106 q 466 72 467 47 q 469 22 472 0 l 330 0 l 324 67 q 294 28 256 8 q 217 -11 171 -11 q 104 -11 62 33 q 21 77 21 148 q 21 234 84 281 q 148 327 267 327 l 318 327 l 318 342 q 318 383 292 405 q 267 426 218 426 q 183 426 148 414 q 113 401 83 378 l 75 493 q 123 511 168 520 q 212 529 254 529 q 372 529 419 479 q 466 430 466 297 z"},"L":{"x_min":0,"x_max":462,"ha":462,"o":"m 69 694 l 228 694 l 228 126 l 455 126 l 455 0 l 69 0 z"},"3":{"x_min":0,"x_max":525,"ha":525,"o":"m 313 364 q 387 353 424 310 q 462 268 462 197 q 462 102 395 45 q 327 -11 213 -11 q 162 -11 117 -4 q 72 4 37 18 l 45 142 q 79 125 114 116 q 149 108 185 108 q 242 108 272 134 q 303 160 303 207 q 303 256 271 279 q 238 302 168 302 l 157 302 q 153 302 140 301 q 133 300 129 300 l 129 415 q 132 415 140 415 q 147 414 151 414 q 234 414 267 434 q 299 455 299 503 q 299 546 271 568 q 244 591 191 591 q 159 591 127 582 q 95 572 62 553 l 53 673 q 94 690 139 698 q 184 706 237 706 q 341 706 396 660 q 452 614 452 528 q 452 465 415 421 q 378 377 313 364 z"},";":{"x_min":0,"x_max":291,"ha":291,"o":"m 88 149 l 227 149 l 147 -113 l 35 -113 z m 76 518 l 215 518 l 215 369 l 76 369 z"},"J":{"x_min":0,"x_max":382,"ha":382,"o":"m 155 694 l 315 694 l 315 257 q 315 112 269 51 q 223 -11 119 -11 q 94 -11 67 -6 q 41 -1 13 8 l 20 136 q 34 130 47 128 q 60 125 72 125 q 113 125 134 149 q 155 174 155 221 l 155 255 z"},"V":{"x_min":0,"x_max":583,"ha":583,"o":"m 0 694 l 168 694 l 292 174 l 428 694 l 583 694 l 376 0 l 204 0 z"},"\"":{"x_min":0,"x_max":331,"ha":331,"o":"m 198 702 l 292 702 l 292 429 l 198 429 z m 39 702 l 133 702 l 133 429 l 39 429 z"},"7":{"x_min":0,"x_max":525,"ha":525,"o":"m 47 694 l 456 694 l 456 559 l 259 0 l 92 0 l 310 578 l 47 578 z"},"S":{"x_min":0,"x_max":509,"ha":509,"o":"m 435 683 l 426 558 q 389 574 354 583 q 320 591 290 591 q 244 591 219 572 q 194 554 194 520 q 194 489 215 467 q 236 446 301 415 q 409 363 441 319 q 473 276 473 205 q 473 105 407 47 q 341 -11 227 -11 q 188 -11 144 -4 q 101 4 50 19 l 62 144 q 106 123 145 112 q 184 102 220 102 q 268 102 294 124 q 321 146 321 184 q 321 238 210 294 q 196 301 189 305 q 102 349 72 391 q 43 432 43 497 q 43 595 107 650 q 171 706 285 706 q 320 706 357 700 q 394 695 435 683 z"},"}":{"x_min":0,"x_max":500,"ha":500,"o":"m 70 721 l 103 721 q 157 721 189 715 q 222 709 244 697 q 272 681 283 652 q 295 623 295 555 l 295 432 q 295 365 320 337 q 345 309 404 309 q 407 309 414 310 q 420 310 424 310 l 424 208 l 406 208 q 345 208 320 181 q 295 153 295 86 l 295 -37 q 295 -107 283 -135 q 272 -164 244 -179 q 221 -191 188 -197 q 156 -203 107 -203 q 101 -203 89 -203 q 77 -202 70 -202 l 70 -100 q 74 -100 82 -101 q 90 -101 93 -101 q 142 -101 159 -82 q 177 -63 177 -4 l 177 113 q 177 186 199 216 q 221 246 278 259 q 221 272 199 302 q 177 333 177 405 l 177 523 q 177 583 159 601 q 142 620 93 620 q 90 620 82 620 q 74 619 70 619 z"},"Z":{"x_min":0,"x_max":509,"ha":509,"o":"m 39 694 l 473 694 l 473 564 l 203 124 l 481 124 l 481 0 l 31 0 l 31 138 l 297 570 l 39 570 z"},"x":{"x_min":0,"x_max":479,"ha":479,"o":"m 5 518 l 175 518 l 245 358 l 318 518 l 476 518 l 334 275 l 488 0 l 317 0 l 231 187 l 147 0 l -9 0 l 147 277 z"},")":{"x_min":0,"x_max":310,"ha":310,"o":"m 11 755 l 123 755 q 193 638 228 528 q 262 417 262 311 q 262 205 228 95 q 193 -15 123 -132 l 11 -132 q 69 -29 98 81 q 126 190 126 311 q 126 432 97 542 q 69 652 11 755 z"},"&":{"x_min":0,"x_max":639,"ha":639,"o":"m 235 303 q 207 287 193 262 q 179 237 179 205 q 179 159 207 130 q 234 100 276 100 q 302 100 324 111 q 346 121 362 141 z m 345 373 l 447 245 q 461 268 469 302 q 477 337 477 378 l 477 385 l 603 385 q 602 310 584 250 q 566 191 530 144 l 642 0 l 472 0 l 434 54 q 396 21 352 5 q 307 -11 255 -11 q 152 -11 89 47 q 27 105 27 200 q 27 259 57 307 q 88 354 148 391 q 111 430 94 468 q 76 506 76 547 q 76 616 131 660 q 187 705 275 705 q 366 705 420 662 q 474 619 474 549 q 474 495 444 453 q 414 412 345 373 z m 273 445 q 309 465 328 491 q 347 518 347 546 q 347 579 330 596 q 313 614 281 614 q 248 614 228 597 q 209 581 209 552 q 209 529 225 502 q 241 476 273 445 z"},"_":{"x_min":0,"x_max":500,"ha":500,"o":"m 0 -136 l 500 -136 l 500 -236 l 0 -236 z"},"v":{"x_min":0,"x_max":511,"ha":511,"o":"m 4 518 l 167 518 l 260 139 l 356 518 l 506 518 l 346 0 l 163 0 z"},"O":{"x_min":0,"x_max":662,"ha":662,"o":"m 331 589 q 271 589 239 526 q 206 463 206 347 q 206 231 239 169 q 271 106 331 106 q 391 106 424 169 q 456 231 456 347 q 456 463 423 526 q 391 589 331 589 z m 331 706 q 470 706 547 611 q 625 517 625 347 q 625 177 547 83 q 470 -11 331 -11 q 191 -11 114 83 q 37 177 37 347 q 37 517 115 611 q 192 706 331 706 z"},"(":{"x_min":0,"x_max":310,"ha":310,"o":"m 187 755 l 300 755 q 242 651 213 542 q 184 432 184 311 q 184 191 213 81 q 241 -28 300 -132 l 187 -132 q 118 -16 83 94 q 49 205 49 311 q 49 418 83 529 q 118 639 187 755 z"},"C":{"x_min":0,"x_max":556,"ha":556,"o":"m 526 673 l 518 543 q 486 562 455 571 q 424 580 386 580 q 299 580 252 520 q 205 459 205 348 q 205 235 254 173 q 302 112 392 112 q 425 112 457 122 q 489 131 523 152 l 530 18 q 493 3 452 -4 q 412 -11 367 -11 q 216 -11 126 86 q 37 183 37 348 q 37 511 126 608 q 214 706 362 706 q 403 706 444 698 q 484 689 526 673 z"},"W":{"x_min":0,"x_max":858,"ha":858,"o":"m 15 694 l 166 694 l 258 166 l 337 694 l 525 694 l 612 166 l 700 694 l 839 694 l 708 0 l 521 0 l 428 556 l 343 0 l 155 0 z"},"A":{"x_min":0,"x_max":607,"ha":607,"o":"m 305 557 l 222 275 l 379 275 z m 216 694 l 400 694 l 615 0 l 450 0 l 410 155 l 187 155 l 145 0 l -10 0 z"},"f":{"x_min":0,"x_max":331,"ha":331,"o":"m 340 747 l 340 641 q 330 644 319 645 q 309 646 295 646 q 264 646 250 628 q 236 611 236 571 l 236 518 l 331 518 l 331 411 l 236 411 l 236 0 l 84 0 l 84 411 l -4 411 l -4 518 l 84 518 l 84 590 q 84 678 123 718 q 162 758 246 758 q 269 758 291 755 q 314 752 340 747 z"},"Q":{"x_min":0,"x_max":662,"ha":662,"o":"m 476 24 l 600 -136 l 432 -136 l 344 -12 q 195 -12 116 80 q 37 173 37 347 q 37 517 115 612 q 192 706 331 706 q 470 706 547 611 q 625 517 625 347 q 625 227 588 146 q 550 65 476 24 z m 331 589 q 271 589 239 526 q 206 463 206 347 q 206 231 239 169 q 271 106 331 106 q 391 106 424 169 q 456 231 456 347 q 456 463 423 526 q 391 589 331 589 z"},"w":{"x_min":0,"x_max":799,"ha":799,"o":"m 14 518 l 169 518 l 241 133 l 319 518 l 489 518 l 563 132 l 638 518 l 785 518 l 646 0 l 481 0 l 400 391 l 316 0 l 146 0 z"},"-":{"x_min":0,"x_max":313,"ha":313,"o":"m 35 324 l 278 324 l 278 208 l 35 208 z"},"E":{"x_min":0,"x_max":520,"ha":520,"o":"m 69 694 l 464 694 l 464 578 l 228 578 l 228 412 l 451 412 l 451 296 l 228 296 l 228 117 l 475 117 l 475 0 l 69 0 z"},"s":{"x_min":0,"x_max":428,"ha":428,"o":"m 365 507 l 363 394 q 333 410 305 417 q 276 425 248 425 q 213 425 196 413 q 178 400 178 376 q 178 346 252 317 l 252 317 q 344 280 369 247 q 394 214 394 155 q 394 75 339 31 q 284 -12 183 -12 q 152 -12 116 -6 q 81 0 42 12 l 43 135 q 77 114 112 103 q 148 92 182 92 q 218 92 238 106 q 258 120 258 144 q 258 174 187 202 q 173 207 165 210 q 93 239 65 272 q 37 305 37 357 q 37 438 88 483 q 139 528 230 528 q 263 528 297 523 q 332 518 365 507 z"},">":{"x_min":0,"x_max":833,"ha":833,"o":"m 129 583 l 704 347 l 704 250 l 129 13 l 129 120 l 566 298 l 129 476 z"},"l":{"x_min":0,"x_max":273,"ha":273,"o":"m 61 749 l 212 749 l 212 0 l 61 0 z"},"8":{"x_min":0,"x_max":525,"ha":525,"o":"m 252 308 q 217 291 198 261 q 180 231 180 192 q 180 147 201 122 q 222 97 259 97 q 297 97 318 120 q 339 143 339 185 q 339 227 319 256 q 298 285 252 308 z m 354 370 q 420 345 455 299 q 490 252 490 188 q 490 96 429 42 q 368 -11 262 -11 q 160 -11 97 44 q 35 100 35 190 q 35 250 66 295 q 96 339 153 361 q 103 383 77 423 q 51 463 51 517 q 51 601 108 653 q 165 706 257 706 q 352 706 408 657 q 465 607 465 526 q 465 474 435 432 q 405 390 354 370 z m 269 410 q 300 432 315 456 q 330 481 330 512 q 330 552 311 575 q 291 599 259 599 q 225 599 206 578 q 186 557 186 521 q 186 485 206 459 q 226 432 269 410 z"},"\\":{"x_min":0,"x_max":285,"ha":285,"o":"m 4 696 l 101 696 l 311 -93 l 214 -93 z"},"e":{"x_min":0,"x_max":514,"ha":514,"o":"m 186 218 q 192 156 223 126 q 255 95 312 95 q 346 95 379 105 q 413 115 448 135 l 453 24 q 415 7 373 -2 q 332 -11 291 -11 q 169 -11 102 59 q 34 129 34 256 q 34 378 95 454 q 157 529 256 529 q 362 529 420 457 q 479 384 479 252 q 479 238 479 231 q 479 225 478 218 z m 338 302 q 338 310 338 317 q 339 325 339 325 q 339 373 320 399 q 301 426 266 426 q 227 426 207 396 q 187 366 183 302 z"},"b":{"x_min":0,"x_max":564,"ha":564,"o":"m 213 235 q 213 171 233 137 q 253 103 291 103 q 330 103 349 142 q 369 181 369 258 q 369 334 349 374 q 329 413 291 413 q 254 413 233 379 q 213 344 213 281 z m 61 749 l 213 749 l 213 446 q 239 490 271 509 q 302 529 345 529 q 436 529 482 460 q 529 392 529 259 q 529 128 482 58 q 435 -11 347 -11 q 301 -11 266 11 q 232 34 207 80 q 206 48 205 30 q 204 13 203 0 l 61 0 z"},"%":{"x_min":0,"x_max":819,"ha":819,"o":"m 640 68 q 666 68 676 95 q 687 122 687 189 q 687 257 676 284 q 666 311 640 311 q 614 311 603 283 q 592 256 592 189 q 592 123 603 95 q 614 68 640 68 z m 179 383 q 205 383 216 411 q 227 438 227 505 q 227 571 216 599 q 205 626 179 626 q 153 626 143 599 q 132 572 132 505 q 132 438 143 410 q 154 383 179 383 z m 640 391 q 710 391 749 339 q 787 286 787 190 q 787 95 749 42 q 710 -11 641 -11 q 570 -11 531 42 q 492 94 492 189 q 492 285 531 338 q 570 391 640 391 z m 509 706 l 597 706 l 309 -11 l 222 -11 z m 179 706 q 249 706 288 653 q 327 601 327 505 q 327 410 289 357 q 250 304 181 304 q 110 304 71 356 q 32 409 32 504 q 32 601 71 653 q 109 706 179 706 z"},"m":{"x_min":0,"x_max":819,"ha":819,"o":"m 476 444 q 496 485 533 507 q 570 529 621 529 q 689 529 726 484 q 762 439 762 354 l 762 0 l 610 0 l 610 320 q 610 362 596 382 q 583 402 555 402 q 521 402 504 375 q 487 348 487 295 l 487 0 l 336 0 l 336 320 q 336 362 323 382 q 310 402 281 402 q 248 402 230 375 q 213 348 213 295 l 213 0 l 61 0 l 61 406 q 61 451 60 474 q 59 498 56 518 l 195 518 q 198 495 199 475 q 200 456 200 439 q 218 480 255 505 q 293 529 339 529 q 388 529 423 507 q 458 485 476 444 z"},"#":{"x_min":0,"x_max":769,"ha":769,"o":"m 346 414 l 303 295 l 426 295 l 468 414 z m 346 715 l 454 715 l 383 512 l 501 512 l 573 715 l 681 715 l 609 512 l 747 512 l 711 414 l 574 414 l 533 296 l 675 296 l 640 198 l 498 198 l 426 -5 l 318 -5 l 390 198 l 271 198 l 198 -5 l 91 -5 l 162 198 l 22 198 l 59 296 l 197 296 l 239 414 l 93 414 l 129 512 l 274 512 z"},",":{"x_min":0,"x_max":263,"ha":263,"o":"m 72 149 l 211 149 l 130 -113 l 19 -113 z"},"n":{"x_min":0,"x_max":548,"ha":548,"o":"m 492 354 l 492 0 l 340 0 l 340 320 q 340 362 326 382 q 312 402 282 402 q 249 402 231 375 q 213 347 213 295 l 213 0 l 61 0 l 61 406 q 61 451 60 474 q 59 498 56 518 l 195 518 q 198 495 199 475 q 200 456 200 439 q 218 481 257 505 q 295 529 345 529 q 417 529 455 484 q 492 440 492 354 z"},"h":{"x_min":0,"x_max":548,"ha":548,"o":"m 61 749 l 213 749 l 213 462 q 235 495 269 512 q 302 529 344 529 q 417 529 455 484 q 492 440 492 354 l 492 0 l 340 0 l 340 320 q 340 362 326 382 q 312 402 282 402 q 249 402 231 375 q 213 347 213 295 l 213 0 l 61 0 z"},"z":{"x_min":0,"x_max":424,"ha":424,"o":"m 33 518 l 389 518 l 389 388 l 190 116 l 390 116 l 390 0 l 31 0 l 31 134 l 227 402 l 33 402 z"},"B":{"x_min":0,"x_max":559,"ha":559,"o":"m 221 302 l 221 117 l 260 117 q 318 117 345 139 q 371 160 371 208 q 371 258 345 280 q 319 302 260 302 z m 221 578 l 221 409 l 257 409 q 310 409 333 429 q 357 448 357 492 q 357 538 333 558 q 309 578 254 578 z m 69 694 l 282 694 q 398 694 454 651 q 510 608 510 518 q 510 454 477 414 q 445 373 384 361 q 455 348 490 306 q 525 263 525 189 q 525 92 464 46 q 403 0 275 0 l 69 0 z"},"K":{"x_min":0,"x_max":577,"ha":577,"o":"m 69 694 l 228 694 l 228 409 l 402 694 l 578 694 l 368 371 l 596 0 l 408 0 l 228 319 l 228 0 l 69 0 z"},"R":{"x_min":0,"x_max":567,"ha":567,"o":"m 225 578 l 225 400 l 259 400 q 318 400 344 420 q 370 441 370 487 q 370 537 346 558 q 323 578 261 578 z m 69 694 l 233 694 q 246 694 259 694 q 272 695 273 695 q 405 695 466 650 q 526 605 526 508 q 526 444 493 402 q 459 361 396 345 q 427 337 446 316 q 464 294 483 235 l 559 0 l 395 0 l 340 197 q 325 250 307 267 q 290 284 255 284 l 225 284 l 225 0 l 69 0 z"},"T":{"x_min":0,"x_max":497,"ha":497,"o":"m 17 694 l 479 694 l 479 570 l 328 570 l 328 0 l 168 0 l 168 570 l 17 570 z"},"P":{"x_min":0,"x_max":542,"ha":542,"o":"m 228 578 l 228 371 l 265 371 q 318 371 341 395 q 364 419 364 476 q 364 531 341 555 q 318 578 261 578 z m 69 694 l 242 694 q 312 694 353 687 q 393 680 420 664 q 469 636 494 587 q 519 538 519 472 q 519 363 456 309 q 392 254 266 254 l 228 254 l 228 0 l 69 0 z"},"|":{"x_min":0,"x_max":500,"ha":500,"o":"m 200 764 l 301 764 l 301 -236 l 200 -236 z"},"t":{"x_min":0,"x_max":353,"ha":353,"o":"m 232 670 l 232 518 l 331 518 l 331 411 l 232 411 l 232 195 q 232 138 245 120 q 257 102 290 102 q 299 102 311 104 q 322 106 339 110 l 339 1 q 312 -4 287 -7 q 263 -10 241 -10 q 153 -10 117 30 q 81 69 81 186 l 81 411 l -4 411 l -4 518 l 81 518 l 81 623 z"},"M":{"x_min":0,"x_max":837,"ha":837,"o":"m 69 694 l 293 694 l 417 229 l 543 694 l 769 694 l 769 0 l 628 0 l 628 577 l 466 0 l 367 0 l 203 576 l 203 0 l 69 0 z"},"g":{"x_min":0,"x_max":564,"ha":564,"o":"m 351 288 q 351 349 331 382 q 310 415 273 415 q 235 415 215 378 q 195 340 195 269 q 195 193 215 154 q 234 115 273 115 q 309 115 330 149 q 351 183 351 243 z m 357 438 q 357 458 358 478 q 358 499 360 518 l 508 518 l 508 515 q 503 405 503 384 l 503 95 q 503 -15 491 -60 q 480 -104 453 -139 q 420 -181 367 -201 q 314 -222 239 -222 q 192 -222 147 -215 q 102 -208 58 -193 l 66 -69 q 100 -88 139 -99 q 178 -109 218 -109 q 289 -109 320 -72 q 352 -35 352 49 q 352 62 352 68 q 352 74 351 80 q 326 38 294 19 q 262 0 218 0 q 127 0 81 67 q 35 135 35 267 q 35 391 83 460 q 131 529 216 529 q 263 529 298 506 q 333 484 357 438 z"},"j":{"x_min":0,"x_max":273,"ha":273,"o":"m 61 518 l 212 518 l 212 -19 q 212 -130 175 -176 q 137 -222 52 -222 q 34 -222 16 -219 q -2 -217 -23 -211 l -18 -106 q -12 -107 -7 -108 q -1 -109 9 -109 q 39 -109 50 -90 q 61 -70 61 -1 z m 61 741 l 212 741 l 212 606 l 61 606 z"},"i":{"x_min":0,"x_max":273,"ha":273,"o":"m 61 518 l 212 518 l 212 0 l 61 0 z m 61 741 l 212 741 l 212 606 l 61 606 z"},"y":{"x_min":0,"x_max":506,"ha":506,"o":"m 5 518 l 167 518 l 264 139 l 356 518 l 504 518 l 331 -33 q 295 -146 253 -184 q 211 -222 135 -222 q 111 -222 90 -219 q 69 -216 48 -210 l 58 -97 q 71 -101 81 -102 q 90 -104 97 -104 q 130 -104 150 -88 q 170 -72 180 -38 l 187 -15 z"},"@":{"x_min":0,"x_max":1000,"ha":1000,"o":"m 570 133 q 543 92 508 73 q 473 53 425 53 q 348 53 307 95 q 267 137 267 219 q 267 336 335 415 q 403 494 503 494 q 542 494 571 478 q 600 462 618 430 l 644 478 l 731 478 l 659 186 q 658 181 657 175 q 656 169 656 166 q 656 149 667 140 q 679 132 702 132 q 721 132 742 142 q 763 151 781 169 q 823 208 844 260 q 866 312 866 375 q 866 492 776 568 q 685 643 542 643 q 473 643 414 626 q 354 610 306 577 q 223 521 178 438 q 134 354 134 255 q 134 105 235 15 q 336 -74 505 -74 q 584 -74 659 -50 q 735 -26 800 19 l 840 -38 q 765 -94 681 -123 q 598 -151 507 -151 q 413 -151 334 -127 q 256 -104 195 -57 q 119 2 82 79 q 44 156 44 254 q 44 335 70 409 q 95 483 145 544 q 217 632 319 678 q 420 723 545 723 q 627 723 700 701 q 772 679 826 638 q 892 587 925 521 q 957 456 957 373 q 957 292 925 224 q 893 156 833 108 q 799 81 759 66 q 718 52 675 52 q 623 52 597 72 q 571 93 570 133 z m 594 342 q 588 381 566 402 q 544 423 509 423 q 453 423 412 362 q 371 302 371 217 q 371 172 391 148 q 411 125 448 125 q 489 125 522 156 q 556 187 568 236 z"},".":{"x_min":0,"x_max":263,"ha":263,"o":"m 62 149 l 201 149 l 201 0 l 62 0 z"},"p":{"x_min":0,"x_max":564,"ha":564,"o":"m 213 71 l 213 -218 l 61 -218 l 61 384 q 61 391 59 452 q 57 492 56 518 l 203 518 q 204 505 205 488 q 206 470 207 438 q 232 484 266 507 q 301 529 347 529 q 435 529 482 459 q 529 390 529 259 q 529 126 482 58 q 436 -11 345 -11 q 301 -11 270 8 q 239 28 213 71 z m 213 237 q 213 174 233 139 q 254 105 291 105 q 329 105 349 144 q 369 183 369 259 q 369 336 349 375 q 330 415 291 415 q 254 415 233 381 q 213 346 213 283 z"},"X":{"x_min":0,"x_max":573,"ha":573,"o":"m 19 694 l 197 694 l 295 477 l 396 694 l 564 694 l 386 366 l 576 0 l 399 0 l 285 248 l 166 0 l -4 0 l 194 366 z"},"*":{"x_min":0,"x_max":409,"ha":409,"o":"m 150 745 l 259 745 l 239 614 l 357 674 l 391 570 l 260 549 l 353 455 l 265 391 l 204 509 l 144 391 l 56 455 l 149 549 l 18 570 l 51 674 l 170 614 z"},"Y":{"x_min":0,"x_max":522,"ha":522,"o":"m -25 694 l 156 694 l 266 403 l 377 694 l 547 694 l 341 262 l 341 0 l 181 0 l 181 268 z"},"c":{"x_min":0,"x_max":427,"ha":427,"o":"m 408 504 l 400 387 q 379 398 356 405 q 334 411 313 411 q 255 411 225 375 q 195 339 195 269 q 195 190 224 148 q 252 106 306 106 q 333 106 359 113 q 385 120 409 133 l 417 16 q 379 2 343 -4 q 306 -11 269 -11 q 161 -11 98 62 q 35 136 35 263 q 35 387 101 458 q 167 529 280 529 q 312 529 344 523 q 376 517 408 504 z"},"!":{"x_min":0,"x_max":319,"ha":319,"o":"m 95 142 l 230 142 l 230 0 l 95 0 z m 84 694 l 242 694 l 219 214 l 107 214 z"},"/":{"x_min":0,"x_max":285,"ha":285,"o":"m 184 696 l 281 696 l 72 -93 l -26 -93 z"},"[":{"x_min":0,"x_max":310,"ha":310,"o":"m 84 755 l 288 755 l 288 656 l 200 656 l 200 -34 l 288 -34 l 288 -132 l 84 -132 z"},"6":{"x_min":0,"x_max":525,"ha":525,"o":"m 269 331 q 233 331 215 302 q 197 273 197 215 q 197 157 215 128 q 233 100 269 100 q 305 100 323 128 q 341 157 341 212 q 341 272 323 302 q 306 331 269 331 z m 456 681 l 447 561 q 419 577 393 584 q 366 592 337 592 q 270 592 233 543 q 196 495 192 401 q 214 424 242 436 q 270 447 305 447 q 387 447 438 385 q 490 323 490 225 q 490 114 434 52 q 377 -11 278 -11 q 160 -11 102 74 q 45 159 45 334 q 45 514 114 610 q 183 706 312 706 q 346 706 383 700 q 420 693 456 681 z"},"r":{"x_min":0,"x_max":360,"ha":360,"o":"m 358 527 l 358 388 q 356 388 352 389 q 330 394 322 394 q 265 394 239 360 q 213 325 213 249 l 213 0 l 61 0 l 61 406 q 61 451 60 474 q 59 498 56 518 l 195 518 q 195 516 195 513 q 199 466 199 444 l 199 428 q 216 475 252 502 q 288 529 332 529 q 340 529 355 527 q 357 527 358 527 z"},"2":{"x_min":0,"x_max":525,"ha":525,"o":"m 212 118 l 461 118 l 461 0 l 45 0 l 45 125 q 180 256 238 341 q 296 425 296 489 q 296 531 271 556 q 245 581 202 581 q 171 581 137 569 q 102 557 66 534 l 55 664 q 95 684 141 694 q 187 705 232 705 q 331 705 390 653 q 448 602 448 513 q 448 430 391 334 q 333 237 212 118 z"},"{":{"x_min":0,"x_max":500,"ha":500,"o":"m 431 721 l 431 619 q 427 619 419 620 q 411 620 408 620 q 359 620 342 601 q 324 583 324 522 l 324 405 q 324 333 302 302 q 280 272 223 259 q 280 246 302 216 q 324 186 324 114 l 324 -4 q 324 -64 341 -83 q 358 -101 408 -101 q 411 -101 419 -101 q 427 -100 431 -100 l 431 -202 q 424 -202 412 -203 q 400 -203 394 -203 q 345 -203 312 -197 q 280 -191 257 -179 q 229 -163 218 -135 q 206 -106 206 -37 l 206 86 q 206 153 181 181 q 156 209 97 209 q 94 209 87 208 q 81 208 77 208 l 77 310 q 81 310 87 310 q 94 309 97 309 q 156 309 181 337 q 206 366 206 433 l 206 555 q 206 625 218 653 q 229 682 257 698 q 280 710 312 716 q 345 722 394 722 q 400 722 412 722 q 424 721 431 721 z"},"9":{"x_min":0,"x_max":525,"ha":525,"o":"m 67 14 l 76 134 q 102 120 129 111 q 156 103 177 103 q 252 103 288 147 q 324 192 331 294 q 309 271 280 260 q 251 248 216 248 q 135 248 85 309 q 34 370 34 468 q 34 576 92 641 q 150 706 245 706 q 363 706 421 620 q 479 535 479 361 q 479 180 410 84 q 341 -11 211 -11 q 176 -11 140 -5 q 103 2 67 14 z m 255 595 q 220 595 201 566 q 183 538 183 482 q 183 422 200 393 q 218 363 253 363 q 290 363 308 391 q 326 419 326 476 q 326 537 309 566 q 292 595 255 595 z"}," ":{"x_min":0,"x_max":263,"ha":263,"o":""},"I":{"x_min":0,"x_max":297,"ha":297,"o":"m 69 694 l 228 694 l 228 0 l 69 0 z"},"H":{"x_min":0,"x_max":625,"ha":625,"o":"m 69 694 l 228 694 l 228 421 l 397 421 l 397 694 l 556 694 l 556 0 l 397 0 l 397 295 l 228 295 l 228 0 l 69 0 z"},"4":{"x_min":0,"x_max":525,"ha":525,"o":"m 288 532 l 139 246 l 288 246 z m 260 694 l 427 694 l 427 246 l 501 246 l 501 137 l 427 137 l 427 0 l 284 0 l 284 137 l 30 137 l 30 274 z"},"~":{"x_min":0,"x_max":833,"ha":833,"o":"m 747 392 l 747 284 q 696 250 651 233 q 606 217 562 217 q 540 217 517 221 q 495 225 472 232 q 460 236 438 244 q 331 281 275 281 q 233 281 188 262 q 143 244 87 204 l 87 312 q 139 347 187 365 q 234 382 276 382 q 333 382 418 354 l 420 353 q 429 350 447 344 q 522 317 564 317 q 605 317 649 335 q 693 353 747 392 z"},"D":{"x_min":0,"x_max":661,"ha":661,"o":"m 228 578 l 228 117 l 249 117 q 348 117 398 175 q 448 232 448 347 q 448 465 399 521 q 350 578 249 578 z m 69 694 l 246 694 q 436 694 526 609 q 616 525 616 347 q 616 178 521 89 q 427 0 246 0 l 69 0 z"},"^":{"x_min":0,"x_max":1000,"ha":1000,"o":"m 438 713 l 561 713 l 796 439 l 681 439 l 500 620 l 318 439 l 203 439 z"},"0":{"x_min":0,"x_max":525,"ha":525,"o":"m 263 589 q 223 589 205 533 q 187 477 187 347 q 187 217 205 162 q 223 106 263 106 q 303 106 321 162 q 339 219 339 347 q 339 476 321 532 q 303 589 263 589 z m 262 706 q 372 706 431 614 q 490 521 490 347 q 490 174 431 82 q 372 -11 262 -11 q 151 -11 93 81 q 35 173 35 347 q 35 522 93 614 q 151 706 262 706 z"},"F":{"x_min":0,"x_max":481,"ha":481,"o":"m 69 694 l 447 694 l 447 578 l 228 578 l 228 406 l 439 406 l 439 289 l 228 289 l 228 0 l 69 0 z"},"`":{"x_min":0,"x_max":500,"ha":500,"o":"m 108 762 l 235 762 l 330 583 l 261 583 z"},"k":{"x_min":0,"x_max":495,"ha":495,"o":"m 61 749 l 212 749 l 212 308 l 346 518 l 500 518 l 344 282 l 514 0 l 346 0 l 212 244 l 212 0 l 61 0 z"},"u":{"x_min":0,"x_max":548,"ha":548,"o":"m 56 518 l 208 518 l 208 198 q 208 156 222 136 q 236 116 266 116 q 300 116 317 144 q 335 171 335 223 l 335 518 l 487 518 l 487 111 q 487 65 488 42 q 489 20 492 0 l 353 0 q 351 22 349 41 q 348 60 348 78 q 330 36 292 12 q 253 -11 203 -11 q 130 -11 93 33 q 56 77 56 163 z"},"]":{"x_min":0,"x_max":310,"ha":310,"o":"m 22 755 l 227 755 l 227 -132 l 22 -132 l 22 -34 l 111 -34 l 111 656 l 22 656 z"},"U":{"x_min":0,"x_max":629,"ha":629,"o":"m 65 694 l 225 694 l 225 250 q 225 168 246 137 q 267 106 318 106 q 370 106 391 137 q 412 169 412 250 l 412 694 l 564 694 l 564 268 q 564 125 503 57 q 441 -11 314 -11 q 187 -11 126 57 q 65 125 65 268 z"},"o":{"x_min":0,"x_max":548,"ha":548,"o":"m 274 420 q 236 420 216 378 q 195 336 195 259 q 195 182 216 140 q 236 98 274 98 q 312 98 333 139 q 353 181 353 259 q 353 337 333 379 q 312 420 274 420 z m 274 529 q 390 529 451 459 q 513 389 513 259 q 513 129 451 59 q 389 -11 274 -11 q 160 -11 97 59 q 35 130 35 259 q 35 389 97 459 q 159 529 274 529 z"},"N":{"x_min":0,"x_max":665,"ha":665,"o":"m 69 694 l 252 694 l 461 188 l 461 694 l 597 694 l 597 0 l 414 0 l 204 507 l 204 0 l 69 0 z"},"+":{"x_min":0,"x_max":833,"ha":833,"o":"m 367 596 l 466 596 l 466 347 l 709 347 l 709 250 l 466 250 l 466 0 l 367 0 l 367 250 l 124 250 l 124 347 l 367 347 z"},"G":{"x_min":0,"x_max":643,"ha":643,"o":"m 569 679 l 559 553 q 525 572 489 580 q 452 589 407 589 q 311 589 258 526 q 205 463 205 347 q 205 229 250 167 q 295 105 381 105 q 395 105 409 108 q 424 110 439 116 l 439 280 l 350 280 l 350 397 l 590 397 l 590 26 q 548 8 493 -2 q 438 -11 375 -11 q 214 -11 126 80 q 37 171 37 337 q 37 512 131 609 q 225 706 394 706 q 440 706 484 699 q 528 692 569 679 z"},"q":{"x_min":0,"x_max":564,"ha":564,"o":"m 351 283 q 351 346 331 381 q 310 415 273 415 q 234 415 215 375 q 195 336 195 259 q 195 183 215 144 q 235 105 273 105 q 310 105 331 139 q 351 174 351 237 z m 357 438 q 357 460 358 480 q 358 500 360 518 l 508 518 q 506 474 504 437 q 503 399 503 384 l 503 -218 l 351 -218 l 351 71 q 325 28 294 8 q 263 -11 219 -11 q 128 -11 82 58 q 35 126 35 259 q 35 390 82 459 q 129 529 217 529 q 263 529 298 507 q 332 484 357 438 z"},"d":{"x_min":0,"x_max":564,"ha":564,"o":"m 351 281 q 351 344 331 379 q 310 413 273 413 q 235 413 215 374 q 195 334 195 258 q 195 181 215 142 q 234 103 273 103 q 310 103 331 137 q 351 172 351 235 z m 351 749 l 503 749 l 503 0 l 360 0 q 358 18 358 38 q 357 58 357 80 q 332 34 298 11 q 263 -11 217 -11 q 129 -11 82 58 q 35 128 35 259 q 35 391 82 460 q 129 529 219 529 q 262 529 293 509 q 325 490 351 446 z"},"1":{"x_min":0,"x_max":525,"ha":525,"o":"m 244 694 l 357 694 l 357 0 l 214 0 l 214 516 l 125 429 l 54 537 z"},"5":{"x_min":0,"x_max":525,"ha":525,"o":"m 69 694 l 442 694 l 442 581 l 203 581 l 203 448 q 216 450 229 451 q 243 452 258 452 q 358 452 416 392 q 474 333 474 231 q 474 123 404 56 q 333 -11 218 -11 q 176 -11 135 -4 q 95 3 56 17 l 63 142 q 91 126 125 118 q 159 110 196 110 q 253 110 286 140 q 318 169 318 222 q 318 282 283 314 q 248 346 182 346 q 156 346 128 341 q 100 336 69 327 z"}}}
